<svg width="957" height="437" viewBox="0 0 957 437" fill="none" xmlns="http://www.w3.org/2000/svg">
<path d="M164.524 239.162L109.593 143.529H64.9422L54.1809 141.11L58.9994 121.274V116.114H110.075C120.033 116.114 128.01 114.071 134.007 109.985C140.003 105.792 144.286 100.309 146.856 93.536C149.533 86.7627 150.871 79.3981 150.871 71.4422C150.871 62.6261 149.426 55.2615 146.535 49.3483C143.644 43.3276 138.932 38.8121 132.401 35.8017C125.869 32.7914 117.142 31.2862 106.22 31.2862L67.8332 31.1249L67.6726 23.384L54.0203 4.67679C58.9459 4.67679 64.4603 4.67679 70.5637 4.67679C76.6671 4.67679 82.6634 4.67679 88.5526 4.67679C94.4418 4.67679 99.528 4.67679 103.811 4.67679C129.831 4.67679 149.319 10.1062 162.275 20.965C175.231 31.7162 181.71 47.5206 181.71 68.3781C181.71 76.2265 180.853 84.0211 179.14 91.7621C177.426 99.3955 174.428 106.545 170.145 113.211C165.862 119.877 159.973 125.575 152.478 130.305C144.982 134.928 135.452 138.154 123.888 139.981L124.691 136.111C128.439 136.004 131.544 136.326 134.007 137.079C136.577 137.831 138.825 139.229 140.753 141.272C142.787 143.314 144.875 146.271 147.017 150.141L198.253 239.162H164.524ZM39.2437 239.162V4.67679H68.7969V239.162H39.2437Z" fill="white"/>
<path d="M302.367 244C285.449 244 270.779 239.216 258.358 229.647C245.937 220.078 236.354 206.156 229.608 187.878C222.862 169.494 219.489 147.077 219.489 120.629C219.489 81.7096 226.931 51.8749 241.815 31.1249C256.806 10.375 276.99 0 302.367 0C327.958 0 348.142 10.375 362.919 31.1249C377.803 51.8749 385.244 81.7096 385.244 120.629C385.244 147.077 381.871 169.494 375.126 187.878C368.487 206.156 358.957 220.078 346.536 229.647C334.115 239.216 319.392 244 302.367 244ZM302.367 215.939C318.75 215.939 331.545 208.198 340.754 192.716C350.07 177.235 354.727 153.206 354.727 120.629C354.727 88.4829 350.07 65.0452 340.754 50.3159C331.545 35.4792 318.75 28.0608 302.367 28.0608C286.091 28.0608 273.295 35.4792 263.98 50.3159C254.771 65.0452 250.167 88.4829 250.167 120.629C250.167 153.206 254.771 177.235 263.98 192.716C273.295 208.198 286.091 215.939 302.367 215.939Z" fill="white"/>
<path d="M495.462 242.387C480.578 242.387 467.193 239.377 455.308 233.356C443.529 227.228 434.214 217.767 427.361 204.973C420.508 192.071 417.081 175.514 417.081 155.302V4.35426H447.116V151.593C447.116 163.312 448.455 173.203 451.132 181.266C453.809 189.222 457.449 195.673 462.054 200.619C466.658 205.457 471.851 208.951 477.633 211.101C483.523 213.251 489.572 214.327 495.783 214.327C501.672 214.327 507.401 213.251 512.969 211.101C518.644 208.951 523.73 205.457 528.227 200.619C532.724 195.673 536.258 189.222 538.828 181.266C541.505 173.203 542.843 163.312 542.843 151.593V4.67679H572.878V155.302C572.878 175.514 569.398 192.071 562.438 204.973C555.478 217.767 546.163 227.228 534.491 233.356C522.82 239.377 509.81 242.387 495.462 242.387Z" fill="white"/>
<path d="M691.126 243.839C672.281 243.839 656.433 238.893 643.584 229.002C630.842 219.003 621.205 204.812 614.673 186.427C608.142 168.042 604.876 146.325 604.876 121.274C604.876 95.9013 608.302 74.2375 615.155 56.2829C622.115 38.2207 632.341 24.4054 645.833 14.8368C659.325 5.16061 675.921 0.322534 695.624 0.322534C707.616 0.322534 718.431 2.5803 728.068 7.09584C737.812 11.6114 745.896 19.1373 752.321 29.6735C758.745 40.1022 762.921 54.2939 764.849 72.2485H735.456C734.6 63.54 732.458 55.9066 729.032 49.3483C725.712 42.79 721.054 37.6832 715.058 34.0278C709.169 30.2648 701.834 28.3833 693.054 28.3833C679.562 28.3833 668.533 32.2 659.967 39.8334C651.508 47.4668 645.244 58.2719 641.175 72.2485C637.213 86.1176 635.232 102.46 635.232 121.274C635.232 140.949 637.481 157.882 641.978 172.074C646.582 186.158 653.06 196.963 661.412 204.489C669.765 212.015 679.616 215.778 690.966 215.778C700.924 215.778 709.651 214.434 717.146 211.746C724.641 209.058 731.013 205.403 736.259 200.78V144.981H694.339V117.081H764.206L763.885 215.294C756.925 221.1 749.751 226.153 742.363 230.453C734.974 234.754 727.104 238.033 718.752 240.291C710.4 242.656 701.192 243.839 691.126 243.839Z" fill="white"/>
<path d="M812.426 239.162V4.67679H946.54V30.6411H829.291L842.301 18.2234V111.921L829.291 103.212H935.136V129.176H833.788L842.301 119.662V228.196L829.291 212.714H953.446V239.162H812.426Z" fill="white"/>
<path d="M0 17.4171H957V37.5757H0V17.4171Z" fill="#310000"/>
<path d="M0 64.4538H957V84.6125H0V64.4538Z" fill="#310000"/>
<path d="M0 111.491H957V131.649H0V111.491Z" fill="#310000"/>
<path d="M0 158.527H957V178.686H0V158.527Z" fill="#310000"/>
<path d="M0 205.564H957V225.723H0V205.564Z" fill="#310000"/>
<path d="M128.128 406L158.272 312.944H174.656L204.672 406H192.128L183.424 378.032L190.272 382.896H144L148.48 372.464H187.072L183.232 377.392L171.84 340.336L166.592 321.584H166.208L161.024 340.336L140.736 406H128.128ZM210.254 406L212.238 312.944H229.39L239.566 350.768L243.15 366.832H243.342L246.99 350.768L256.846 312.944H274.062L276.046 406H265.166L264.142 369.136L264.59 322.288H263.822L258.382 343.472L247.182 381.232H239.63L227.854 343.472L222.478 322.288H221.646L222.158 369.136L221.134 406H210.254ZM320.348 407.28C313.948 407.28 308.252 406.256 303.26 404.208C298.311 402.16 294.407 398.981 291.548 394.672C288.689 390.363 287.217 384.795 287.132 377.968H298.908C298.993 382.576 300.06 386.245 302.108 388.976C304.156 391.664 306.823 393.605 310.108 394.8C313.436 395.952 316.999 396.528 320.796 396.528C325.191 396.528 328.817 395.888 331.676 394.608C334.577 393.285 336.753 391.557 338.204 389.424C339.655 387.291 340.38 385.008 340.38 382.576C340.38 379.077 339.484 376.24 337.692 374.064C335.9 371.888 333.34 370.075 330.012 368.624C326.684 367.131 322.737 365.659 318.172 364.208C313.137 362.587 308.551 360.539 304.412 358.064C300.316 355.589 297.052 352.56 294.62 348.976C292.188 345.349 290.972 341.061 290.972 336.112C290.972 330.651 292.316 326.107 295.004 322.48C297.692 318.811 301.276 316.059 305.756 314.224C310.279 312.389 315.249 311.472 320.668 311.472C328.775 311.472 335.388 313.627 340.508 317.936C345.628 322.203 348.721 328.709 349.788 337.456H338.396C338.012 334.555 337.137 331.952 335.772 329.648C334.449 327.344 332.529 325.531 330.012 324.208C327.495 322.843 324.252 322.16 320.284 322.16C314.823 322.16 310.492 323.355 307.292 325.744C304.092 328.133 302.492 331.44 302.492 335.664C302.492 338.651 303.068 341.211 304.22 343.344C305.415 345.435 307.463 347.355 310.364 349.104C313.308 350.811 317.361 352.603 322.524 354.48C326.236 355.803 329.841 357.189 333.34 358.64C336.881 360.091 340.039 361.819 342.812 363.824C345.628 365.787 347.868 368.24 349.532 371.184C351.196 374.085 352.028 377.691 352.028 382C352.071 387.291 350.769 391.835 348.124 395.632C345.521 399.387 341.831 402.267 337.052 404.272C332.316 406.277 326.748 407.28 320.348 407.28ZM390.57 406V329.52C390.57 328.027 390.869 326.789 391.466 325.808C392.063 324.827 392.874 324.165 393.898 323.824H364.65V312.944H428.65V323.824H402.73V406H390.57ZM446.392 406V312.944H499.832V323.248H453.112L458.296 318.32V355.504L453.112 352.048H495.288V362.352H454.904L458.296 358.576V401.648L453.112 395.504H502.584V406H446.392ZM571.974 406L550.086 368.048H532.294L528.006 367.088L529.926 359.216V357.168H550.278C554.246 357.168 557.425 356.357 559.814 354.736C562.203 353.072 563.91 350.896 564.934 348.208C566.001 345.52 566.534 342.597 566.534 339.44C566.534 335.941 565.958 333.019 564.806 330.672C563.654 328.283 561.777 326.491 559.174 325.296C556.571 324.101 553.094 323.504 548.742 323.504L533.446 323.44L533.382 320.368L527.942 312.944C529.905 312.944 532.102 312.944 534.534 312.944C536.966 312.944 539.355 312.944 541.702 312.944C544.049 312.944 546.075 312.944 547.782 312.944C558.15 312.944 565.915 315.099 571.078 319.408C576.241 323.675 578.822 329.947 578.822 338.224C578.822 341.339 578.481 344.432 577.798 347.504C577.115 350.533 575.921 353.371 574.214 356.016C572.507 358.661 570.161 360.923 567.174 362.8C564.187 364.635 560.39 365.915 555.782 366.64L556.102 365.104C557.595 365.061 558.833 365.189 559.814 365.488C560.838 365.787 561.734 366.341 562.502 367.152C563.313 367.963 564.145 369.136 564.998 370.672L585.414 406H571.974ZM522.054 406V312.944H533.83V406H522.054ZM609.428 406L606.548 394.864H620.82C626.537 394.864 631.444 393.499 635.54 390.768C639.636 387.995 642.772 383.941 644.948 378.608C647.124 373.275 648.212 366.747 648.212 359.024C648.212 350.875 647.167 344.24 645.076 339.12C643.028 333.957 639.956 330.16 635.86 327.728C631.807 325.296 626.772 324.08 620.756 324.08H606.036L609.428 312.944H619.348C632.191 312.944 642.239 316.613 649.492 323.952C656.745 331.291 660.372 342.939 660.372 358.896C660.372 369.221 658.623 377.883 655.124 384.88C651.625 391.877 646.804 397.147 640.66 400.688C634.516 404.229 627.433 406 619.412 406H609.428ZM597.524 406V312.944H609.428V406H597.524ZM665.378 406L695.522 312.944H711.906L741.922 406H729.378L720.674 378.032L727.522 382.896H681.25L685.73 372.464H724.322L720.482 377.392L709.09 340.336L703.842 321.584H703.458L698.274 340.336L677.986 406H665.378ZM747.504 406L749.488 312.944H766.64L776.816 350.768L780.4 366.832H780.592L784.24 350.768L794.096 312.944H811.312L813.296 406H802.416L801.392 369.136L801.84 322.288H801.072L795.632 343.472L784.432 381.232H776.88L765.104 343.472L759.728 322.288H758.896L759.408 369.136L758.384 406H747.504Z" fill="white"/>
</svg>
