<svg width="400" height="400" viewBox="0 0 400 400" fill="none" xmlns="http://www.w3.org/2000/svg">
<g clip-path="url(#clip0_162_29)">
<rect width="400" height="400" fill="white"/>
<rect width="400" height="400" fill="#310000"/>
<path d="M274.408 354.012L206.161 235.647H150.686L137.316 232.653L143.302 208.102V201.714H206.76C219.132 201.714 229.043 199.186 236.493 194.13C243.943 188.94 249.265 182.153 252.457 173.77C255.783 165.387 257.446 156.271 257.446 146.424C257.446 135.513 255.65 126.397 252.058 119.079C248.466 111.627 242.613 106.038 234.498 102.312C226.383 98.586 215.54 96.7231 201.971 96.7231L154.278 96.5235L154.078 86.9425L137.116 63.7885C143.236 63.7885 150.087 63.7885 157.67 63.7885C165.253 63.7885 172.703 63.7885 180.02 63.7885C187.337 63.7885 193.656 63.7885 198.977 63.7885C231.305 63.7885 255.517 70.5085 271.615 83.9484C287.712 97.2553 295.76 116.816 295.76 142.632C295.76 152.346 294.696 161.993 292.568 171.574C290.439 181.022 286.714 189.871 281.393 198.122C276.071 206.372 268.754 213.425 259.442 219.28C250.129 225.002 238.289 228.994 223.921 231.256L224.919 226.465C229.575 226.332 233.433 226.731 236.493 227.663C239.686 228.594 242.48 230.324 244.874 232.853C247.402 235.381 249.996 239.04 252.657 243.831L316.314 354.012H274.408ZM118.757 354.012V63.7885H155.475V354.012H118.757Z" fill="white"/>
<path d="M445.668 360C424.648 360 406.423 354.078 390.991 342.235C375.558 330.392 363.652 313.16 355.271 290.538C346.889 267.783 342.699 240.038 342.699 207.303C342.699 159.132 351.945 122.206 370.437 96.5235C389.062 70.8412 414.139 58 445.668 58C477.463 58 502.54 70.8412 520.899 96.5235C539.391 122.206 548.637 159.132 548.637 207.303C548.637 240.038 544.446 267.783 536.065 290.538C527.817 313.16 515.977 330.392 500.545 342.235C485.113 354.078 466.82 360 445.668 360ZM445.668 325.269C466.022 325.269 481.92 315.688 493.361 296.526C504.935 277.364 510.722 247.623 510.722 207.303C510.722 167.516 504.935 138.507 493.361 120.276C481.92 101.913 466.022 92.731 445.668 92.731C425.447 92.731 409.549 101.913 397.975 120.276C386.534 138.507 380.813 167.516 380.813 207.303C380.813 247.623 386.534 277.364 397.975 296.526C409.549 315.688 425.447 325.269 445.668 325.269Z" fill="white"/>
<path d="M685.574 358.004C667.082 358.004 650.452 354.278 635.685 346.826C621.052 339.241 609.478 327.531 600.963 311.696C592.449 295.728 588.192 275.235 588.192 250.218V63.3893H625.508V245.627C625.508 260.132 627.171 272.374 630.497 282.354C633.823 292.201 638.346 300.186 644.067 306.307C649.787 312.295 656.239 316.62 663.423 319.281C670.74 321.942 678.257 323.273 685.973 323.273C693.29 323.273 700.407 321.942 707.325 319.281C714.376 316.62 720.695 312.295 726.282 306.307C731.87 300.186 736.26 292.201 739.453 282.354C742.779 272.374 744.442 260.132 744.442 245.627V63.7885H781.758V250.218C781.758 275.235 777.434 295.728 768.787 311.696C760.14 327.531 748.566 339.241 734.065 346.826C719.564 354.278 703.4 358.004 685.574 358.004Z" fill="white"/>
<path d="M928.672 359.8C905.258 359.8 885.569 353.679 869.605 341.437C853.773 329.061 841.8 311.496 833.685 288.742C825.57 265.987 821.512 239.107 821.512 208.102C821.512 176.698 825.77 149.884 834.284 127.662C842.931 105.306 855.636 88.2067 872.398 76.3635C889.161 64.3873 909.781 58.3992 934.26 58.3992C949.16 58.3992 962.596 61.1937 974.569 66.7826C986.675 72.3714 996.719 81.6863 1004.7 94.727C1012.68 107.635 1017.87 125.2 1020.27 147.422H983.749C982.684 136.644 980.024 127.196 975.767 119.079C971.642 110.961 965.855 104.641 958.405 100.116C951.088 95.4589 941.976 93.1302 931.067 93.1302C914.304 93.1302 900.602 97.8542 889.959 107.302C879.449 116.75 871.667 130.123 866.611 147.422C861.689 164.588 859.228 184.815 859.228 208.102C859.228 232.453 862.022 253.412 867.609 270.977C873.33 288.409 881.378 301.782 891.755 311.097C902.132 320.412 914.371 325.069 928.473 325.069C940.845 325.069 951.687 323.406 961 320.079C970.312 316.753 978.228 312.228 984.746 306.506V237.443H932.663V202.912H1019.47L1019.07 324.471C1010.42 331.656 1001.51 337.911 992.329 343.233C983.15 348.556 973.372 352.615 962.995 355.409C952.618 358.337 941.177 359.8 928.672 359.8Z" fill="white"/>
<path d="M1079.38 354.012V63.7885H1246V95.9246H1100.33L1116.49 80.5552V196.525L1100.33 185.746H1231.84V217.882H1105.92L1116.49 206.106V340.439L1100.33 321.277H1254.58V354.012H1079.38Z" fill="white"/>
<path d="M70 79.5572H1259V104.508H70V79.5572Z" fill="#310000"/>
<path d="M70 137.775H1259V162.725H70V137.775Z" fill="#310000"/>
<path d="M70 195.993H1259V220.943H70V195.993Z" fill="#310000"/>
<path d="M70 254.21H1259V279.161H70V254.21Z" fill="#310000"/>
<path d="M70 312.428H1259V337.378H70V312.428Z" fill="#310000"/>
<rect x="331" y="14" width="266" height="371" fill="#310000"/>
</g>
<defs>
<clipPath id="clip0_162_29">
<rect width="400" height="400" fill="white"/>
</clipPath>
</defs>
</svg>
